<svg width="33" height="52" viewBox="0 0 33 52" fill="none" xmlns="http://www.w3.org/2000/svg">
<path d="M0.600006 11.5H0V21.2H11.8C12.9 21.2 13.3 22.7 12.3 23.2L10 24.3C6.9 25.8 3.80001 26.6 0.600006 26.6H0V36.3H11.5C12.6 36.3 13 37.8 12 38.3L9.60001 39.4C6.70001 40.8 3.60001 41.5 0.600006 41.5H0V51.2H11.5L12.8 49.6C18.4 43.1 24.9 39.7 31.7 39.7H32.2V30H20.7C19.6 30 19.2 28.5 20.2 28L22.6 26.9C25.5 25.5 28.6 24.8 31.6 24.8H32.1V15.1H20.4C19.3 15.1 18.9 13.6 19.9 13.1L22.2 12C25.3 10.5 28.4 9.70001 31.6 9.70001H32.1V0H20.6L19.3 1.60001C13.9 8.10001 7.30001 11.5 0.600006 11.5Z" fill="#4043C6"/>
</svg>
